<?xml version="1.0" encoding="UTF-8" standalone="no"?>
<!-- Created with Inkscape (http://www.inkscape.org/) -->

<svg
   xmlns:osb="http://www.openswatchbook.org/uri/2009/osb"
   xmlns:dc="http://purl.org/dc/elements/1.1/"
   xmlns:cc="http://creativecommons.org/ns#"
   xmlns:rdf="http://www.w3.org/1999/02/22-rdf-syntax-ns#"
   xmlns:svg="http://www.w3.org/2000/svg"
   xmlns="http://www.w3.org/2000/svg"
   xmlns:sodipodi="http://sodipodi.sourceforge.net/DTD/sodipodi-0.dtd"
   xmlns:inkscape="http://www.inkscape.org/namespaces/inkscape"
   version="1.1"
   id="svg3869"
   width="421"
   height="421"
   viewBox="0 0 421 421"
   sodipodi:docname="gitZousia2022svg.svg"
   inkscape:version="0.92.5 (2060ec1f9f, 2020-04-08)"
   inkscape:export-filename="/home/zousia/Images/gitZousia20220119.png"
   inkscape:export-xdpi="300"
   inkscape:export-ydpi="300">
  <metadata
     id="metadata3875">
    <rdf:RDF>
      <cc:Work
         rdf:about="">
        <dc:format>image/svg+xml</dc:format>
        <dc:type
           rdf:resource="http://purl.org/dc/dcmitype/StillImage" />
        <dc:title></dc:title>
      </cc:Work>
    </rdf:RDF>
  </metadata>
  <defs
     id="defs3873">
    <linearGradient
       id="linearGradient6235"
       osb:paint="solid">
      <stop
         style="stop-color:#24221c;stop-opacity:1;"
         offset="0"
         id="stop6233" />
    </linearGradient>
  </defs>
  <sodipodi:namedview
     pagecolor="#ffffff"
     bordercolor="#666666"
     borderopacity="1"
     objecttolerance="10"
     gridtolerance="10"
     guidetolerance="10"
     inkscape:pageopacity="1"
     inkscape:pageshadow="2"
     inkscape:window-width="1848"
     inkscape:window-height="1016"
     id="namedview3871"
     showgrid="false"
     inkscape:zoom="1"
     inkscape:cx="8.8222372"
     inkscape:cy="117.96933"
     inkscape:window-x="72"
     inkscape:window-y="27"
     inkscape:window-maximized="1"
     inkscape:current-layer="layer4"
     fit-margin-top="0"
     fit-margin-left="0"
     fit-margin-right="0"
     fit-margin-bottom="0"
     inkscape:pagecheckerboard="true"
     showguides="false">
    <inkscape:grid
       type="xygrid"
       id="grid53"
       originx="11.298395"
       originy="-100.87338" />
  </sodipodi:namedview>
  <g
     inkscape:groupmode="layer"
     id="layer5"
     inkscape:label="Layer 1"
     transform="translate(-66.855591,-29.808151)">
    <ellipse
       style="opacity:1;fill:#93ac9d;fill-opacity:1;stroke:#000000;stroke-width:1.73927474;stroke-miterlimit:4;stroke-dasharray:none"
       id="path4930"
       cx="311.34964"
       cy="258.79486"
       rx="134.49388"
       ry="141.02371"
       transform="matrix(1,0,0.02274568,0.99974128,0,0)" />
  </g>
  <g
     inkscape:groupmode="layer"
     id="layer3"
     inkscape:label="Layer under"
     transform="translate(-66.855591,-29.808151)"
     style="opacity:0.599">
    <g
       id="g4937"
       transform="matrix(0.84045198,0,0,0.74343606,62.825064,54.991194)"
       style="fill:#536c53">
      <path
         inkscape:connector-curvature="0"
         id="path4813-5"
         d="M 169.47844,377.76496 C 397.48125,55.67573 389.35904,54.16214 395.57663,56.01156 c 6.2176,1.84941 18.36518,59.60431 18.36518,59.60431 l -92.4406,93.87111 -9.81999,122.50715 z"
         style="fill:#536c53;stroke:#000000;stroke-width:2;stroke-linecap:butt;stroke-linejoin:miter;stroke-miterlimit:4;stroke-dasharray:none;stroke-opacity:1" />
      <path
         inkscape:connector-curvature="0"
         id="path4813-6"
         d="m 169.47844,377.76496 c 280.46913,-277.6037 272.73315,-280.5047 278.53513,-277.6037 5.80199,2.90099 7.73599,61.88786 7.73599,61.88786 l -107.33677,76.39286 -30.94394,118.94076 z"
         style="fill:#536c53;stroke:#000000;stroke-width:1;stroke-linecap:butt;stroke-linejoin:miter;stroke-miterlimit:4;stroke-dasharray:none;stroke-opacity:1" />
      <path
         inkscape:connector-curvature="0"
         id="path4813-5-2"
         d="M 169.47844,377.76496 C 338.08716,20.97671 329.82552,20.89652 336.2698,21.63818 c 6.44428,0.74164 28.43635,55.50971 28.43635,55.50971 l -74.73567,108.49713 11.60234,122.35122 z"
         style="fill:#536c53;stroke:#000000;stroke-width:2.5;stroke-linecap:butt;stroke-linejoin:miter;stroke-miterlimit:4;stroke-dasharray:none;stroke-opacity:1" />
      <path
         inkscape:connector-curvature="0"
         id="path4813-5-2-9"
         d="M 169.47844,377.76496 C 273.56998,-2.881466 265.41993,-1.525819 271.89509,-1.914474 278.37025,-2.303139 309.53859,47.814 309.53859,47.814 l -54.75994,119.82653 32.67214,118.47771 z"
         style="fill:#536c53;stroke:#000000;stroke-width:2;stroke-linecap:butt;stroke-linejoin:miter;stroke-miterlimit:4;stroke-dasharray:none;stroke-opacity:1" />
      <path
         inkscape:connector-curvature="0"
         id="path4813-5-2-9-1"
         d="m 169.47844,377.76496 c 36.41159,-392.938863 28.62076,-390.188569 34.93006,-391.69572 6.3093,-1.507159 45.70687,42.43626 45.70687,42.43626 l -33.12035,127.51507 52.74921,111.00431 z"
         style="fill:#536c53;stroke:#000000;stroke-width:1px;stroke-linecap:butt;stroke-linejoin:miter;stroke-opacity:1" />
    </g>
    <ellipse
       style="opacity:1;fill:#0088aa;fill-opacity:1;stroke:#000000;stroke-width:3;stroke-miterlimit:4;stroke-dasharray:none"
       id="path4927"
       cx="206.92123"
       cy="220.17702"
       rx="13.098911"
       ry="13.440798" />
    <ellipse
       style="opacity:1;fill:#0088aa;fill-opacity:1;stroke:#000000;stroke-width:3;stroke-miterlimit:4;stroke-dasharray:none"
       id="path4927-3"
       cx="213.83929"
       cy="380.21729"
       rx="13.098911"
       ry="13.440798" />
  </g>
  <g
     inkscape:groupmode="layer"
     id="layer2"
     inkscape:label="Layer 2"
     style="display:inline"
     transform="translate(-66.855591,-29.808151)">
    <path
       style="fill:#006680;stroke:#000000;stroke-width:3;stroke-linecap:butt;stroke-linejoin:miter;stroke-miterlimit:4;stroke-dasharray:none;stroke-opacity:1"
       d="m 225.09472,253.64359 c -50.08317,1.6871 -6.7697,93.43675 -6.7697,93.43675 0,0 24.48102,2.54172 35.55609,-12.99165 11.07507,-15.53337 14.19542,-55.99794 -1.36754,-81.36873 z"
       id="path4736"
       inkscape:connector-curvature="0"
       sodipodi:nodetypes="sczcs" />
    <path
       style="fill:#006680;fill-opacity:1;stroke:#000000;stroke-width:3;stroke-linecap:butt;stroke-linejoin:miter;stroke-miterlimit:4;stroke-dasharray:none;stroke-opacity:1"
       d="m 379.82424,233.22457 c -23.61272,23.26066 -19.46751,54.64011 -2.73509,80.00119 l 30.08592,4.7864 c 26.05015,-29.89038 36.74412,-64.79698 8.13723,-91.04356 z"
       id="path4740"
       inkscape:connector-curvature="0"
       sodipodi:nodetypes="ccccc" />
  </g>
  <path
     style="fill:#6c5d53;stroke:#000000;stroke-width:4;stroke-linecap:butt;stroke-linejoin:miter;stroke-miterlimit:4;stroke-dasharray:none;stroke-opacity:1"
     d="m 94.646456,329.48914 c 6.913494,-7.47938 98.684104,-106.36677 74.531024,-141.54058 -28.00086,-40.77728 -62.34889,-16.68108 -58.12052,0.68377 1.94942,8.00576 5.58227,11.28234 11.62411,15.72673 9.02751,2.65261 7.54511,10.44167 -0.3107,13.90613 -0.11752,0.0518 -0.24726,0.0744 -0.37308,0.11118 -14.11843,4.13127 -29.887244,-10.76613 -30.085914,-28.37649 -0.71321,-63.21806 90.337714,-58.8303 102.565624,-6.15394 6.62821,28.55354 0.17388,80.00511 -30.76969,144.27566 z"
     id="path4746"
     inkscape:connector-curvature="0"
     sodipodi:nodetypes="csscsssscc" />
  <path
     style="fill:#536c53;stroke:#000000;stroke-width:4;stroke-linecap:butt;stroke-linejoin:miter;stroke-miterlimit:4;stroke-dasharray:none;stroke-opacity:1"
     d="m 62.682346,351.61941 10e-7,-207.52447 c -6.32657,-72.880261 37.06291,-96.044481 105.300703,-94.360371 66.44049,-4.50088 110.38392,16.88799 111.45466,90.941521 3.71289,68.61264 -7.05422,134.7823 -12.30788,203.07995 l -39.72673,5.02624 c 10.04649,-68.64039 29.47017,-133.05067 29.47016,-201.95226 1.14099,-41.98137 -15.34943,-74.032551 -86.15512,-71.795931 -41.50526,1.9007 -86.245983,17.38276 -87.522673,73.847251 l 0.615752,187.25119 z"
     id="path4742"
     inkscape:connector-curvature="0"
     sodipodi:nodetypes="ccccccccccc" />
  <g
     inkscape:groupmode="layer"
     id="layer4"
     inkscape:label="Layer 3"
     transform="translate(-66.855591,-29.808151)"
     style="display:none">
    <circle
       id="path3837"
       cx="277.35559"
       cy="240.30815"
       r="210"
       style="fill:none;fill-opacity:1;stroke:#999999;stroke-width:4;stroke-miterlimit:4;stroke-dasharray:none;stroke-opacity:1"
       inkscape:export-xdpi="96"
       inkscape:export-ydpi="96" />
  </g>
  <g
     inkscape:groupmode="layer"
     id="layer6"
     inkscape:label="signature"
     transform="translate(11.298395,31.751495)">
    <text
       xml:space="preserve"
       style="font-style:normal;font-variant:normal;font-weight:normal;font-stretch:normal;font-size:26.66666603px;line-height:1.25;font-family:monospace;-inkscape-font-specification:monospace;letter-spacing:0px;word-spacing:0px;fill:#000000;fill-opacity:1;stroke:none"
       x="-304.85629"
       y="47.959431"
       id="text4969"
       transform="rotate(-90)"><tspan
         sodipodi:role="line"
         id="tspan4967"
         x="-304.85629"
         y="47.959431"
         style="font-size:5.33333349px">zousia_IM_2022.01.19</tspan></text>
  </g>
</svg>
